HIERARCHY
ROOT Hips
{
    OFFSET 14.072051048278809 94.92171096801758 -18.393817901611328
    CHANNELS 6 Xposition Yposition Zposition Zrotation Xrotation Yrotation
    JOINT RightUpLeg
    {
        OFFSET -14.072051048278809 0.0 0.0
        CHANNELS 3 Zrotation Xrotation Yrotation
        JOINT RightLeg
        {
            OFFSET 0.0 -48.937164306640625 0.0
            CHANNELS 3 Zrotation Xrotation Yrotation
            JOINT RightFoot
            {
                OFFSET 0.0 -45.98454666137695 0.0
                CHANNELS 3 Zrotation Xrotation Yrotation
                End Site
                {
                    OFFSET 0.0 0.0 18.393817901611328
                }
            }
        }
    }
    JOINT LeftUpLeg
    {
        OFFSET 14.072051048278809 0.0 0.0
        CHANNELS 3 Zrotation Xrotation Yrotation
        JOINT LeftLeg
        {
            OFFSET 0.0 -48.937164306640625 0.0
            CHANNELS 3 Zrotation Xrotation Yrotation
            JOINT LeftFoot
            {
                OFFSET 0.0 -45.98454666137695 0.0
                CHANNELS 3 Zrotation Xrotation Yrotation
                End Site
                {
                    OFFSET 0.0 0.0 18.393817901611328
                }
            }
        }
    }
    JOINT Spine
    {
        OFFSET 0.0 25.87814712524414 0.0
        CHANNELS 3 Zrotation Xrotation Yrotation
        JOINT Spine3
        {
            OFFSET 0.0 25.640682220458984 0.0
            CHANNELS 3 Zrotation Xrotation Yrotation
            JOINT Neck
            {
                OFFSET 0.0 11.641457557678223 0.0
                CHANNELS 3 Zrotation Xrotation Yrotation
                End Site
                {
                    OFFSET 0.0 4.656582832336426 0.0
                }
            }
            JOINT LeftArm
            {
                OFFSET 14.515852928161621 0.0 0.0
                CHANNELS 3 Zrotation Xrotation Yrotation
                JOINT LeftForeArm
                {
                    OFFSET 28.941755294799805 0.0 0.0
                    CHANNELS 3 Zrotation Xrotation Yrotation
                    JOINT LeftHand
                    {
                        OFFSET 24.621990203857422 0.0 0.0
                        CHANNELS 3 Zrotation Xrotation Yrotation
                        End Site
                        {
                            OFFSET 9.848794937133789 0.0 0.0
                        }
                    }
                }
            }
            JOINT RightArm
            {
                OFFSET -14.515852928161621 0.0 0.0
                CHANNELS 3 Zrotation Xrotation Yrotation
                JOINT RightForeArm
                {
                    OFFSET -28.941755294799805 0.0 0.0
                    CHANNELS 3 Zrotation Xrotation Yrotation
                    JOINT RightHand
                    {
                        OFFSET -24.621990203857422 0.0 0.0
                        CHANNELS 3 Zrotation Xrotation Yrotation
                        End Site
                        {
                            OFFSET -9.848794937133789 0.0 0.0
                        }
                    }
                }
            }
        }
    }
}
MOTION
Frames: 10
Frame Time: 0.03333333333333333
0.0002313860459253192 95.23591613769531 -0.0006752457702532411 -11.227021860872362 -11.065155189364758 -28.03245192631284 1.4228265133659488 17.54254198010942 -1.356127373775052 -3.435094279798532 8.532816551954946 -0.1243429134262896 7.951386703658792e-16 -1.3914926731402886e-15 4.969616689786745e-15 -0.2770942179001124 22.302932183901152 -1.0644029053626198 1.8038560600010787 8.454890080172465 -0.6487188237894778 4.969616689786745e-16 -2.4848083448933737e-17 -3.0935863893922486e-15 1.4975873739644108 23.450045330259993 -1.822131378951556 3.0503546631608956e-07 -1.7980141822990922e-07 -3.185743799795978 17.14785377708478 13.397704118752907 179.95857253693862 114.17865555296208 -36.17785515222845 -177.7976089227216 2.2974990141901725e-06 8.632824119302975e-08 31.176490884208192 3.180554681463516e-15 1.7655625192200634e-31 6.361109362927032e-15 -117.31868152034211 26.3695213888484 140.85597627324668 -2.1949979054497276e-06 3.1902063885960777e-06 -108.13737866720099 0.0 0.0 0.0
0.0001900775678222999 95.23590087890625 -0.0006746767903678119 -11.398820203654262 -10.89258857041693 -28.588880173691912 1.354237083892125 17.34277211419571 -1.361650793573045 -3.52932895751194 8.310054611082661 -0.1176250519134763 1.0086465563903683e-32 -1.7890620083232284e-15 6.460501696722769e-16 -0.3469219096013983 22.411780767151516 -1.0950414046350456 1.3758966604599712 8.575271698654472 -0.6027203618084068 3.7272125173400585e-16 -4.5158755078775506e-33 -1.3883866627091717e-15 1.568027712649245 23.57379357078813 -1.9146119063851599 2.756436014438689e-07 -2.5100876712887627e-07 -3.740869289657901 17.63631101565079 13.837357568614395 -179.85222884622246 115.36278777403126 -35.81023105381771 -176.7815622666396 1.897804972393402e-06 1.8108234670890928e-06 31.57855990987439 -3.1805546814635168e-15 6.3611093629270335e-15 1.7655625192200634e-31 -115.76193698991423 28.377548876450657 139.52229962237902 8.085130706568816e-07 -2.1369124440015823e-06 -108.8831144041738 -6.3611093629270335e-15 0.0 0.0
0.000211247694096528 95.23599243164062 -0.0006742477416992188 -11.465509976746272 -10.812719203360883 -28.891235891863367 1.1001351252014313 17.009083139469553 -1.2464759735931712 -2.9998432350661726 8.61847570601408 -0.15875612718688104 4.0518280470382315e-33 1.9878466759146985e-16 -2.3357198441997705e-15 -0.6960491325159031 22.395394890553867 -0.9417994206273429 1.4430730059439416 8.58102148478216 -0.5578800005502457 -5.839299610499424e-16 -3.106010431116728e-18 2.5904126995513402e-15 1.5806204558712218 23.553754563303375 -1.8977186643070911 -4.7145362965658495e-09 5.41958415617626e-07 -4.00183600377501 17.714226175983903 14.415291497688418 -179.39311719207188 116.23460016772474 -36.61711343924341 -176.17797294819422 3.4542034577159246e-06 -9.402364926127603e-06 32.09102986899987 -3.1805546814635168e-15 1.7655625192200634e-31 -6.3611093629270335e-15 -114.56930369092866 28.210883153511165 138.1604059856351 2.720666784336481e-06 4.336137621238213e-06 -109.63307276820225 6.361109362927032e-15 1.5902773407317576e-15 -6.361109362927032e-15
0.00021476893743965775 95.23619842529297 -0.0007435752195306122 -11.333846582151049 -10.674503417502603 -29.183328440218972 0.8275909782085059 16.355372020541097 -1.1332458445029034 -3.323297070532727 8.924696247888267 -0.08127140234287711 0.0 0.0 7.951386703658794e-16 -1.1737635890848606 22.031265630351474 -0.7624463649142383 1.8329177738482705 8.791613706743119 -0.5697504140983876 -6.21202086223343e-17 4.192591355188329e-34 -7.733965973480621e-16 1.364702520101623 23.671545683151162 -1.8347757141797685 1.5183526361295188e-07 -9.641221804283518e-07 -4.231611375214095 17.566623577966023 13.947043191909813 -178.85352870566783 117.09275926593135 -37.45606280980563 -175.18949502563987 -2.3580469287487137e-06 -2.0454327525810163e-07 32.27902295986923 3.1805546814635168e-15 0.0 0.0 -113.43242856235184 28.24428305462026 137.40493536919672 -2.3794546851474846e-06 8.283742318887475e-07 -110.73675998351146 -6.3611093629270335e-15 7.062250076880254e-31 -1.2722218725854067e-14
0.0002137274423148483 95.2363052368164 -0.0007780828746035695 -11.329481188171947 -10.68053175838289 -29.340061758050833 0.5835554578247876 16.059169973771592 -1.0671294389821189 -3.2101342392032866 9.139938131209071 -0.07677350389620449 0.0 0.0 2.286023677301903e-15 -1.5107386462606358 22.12468006712497 -0.6682307617125902 1.886349826565631 8.736496301180704 -0.5376866524276592 7.45442503468012e-17 3.1805546814635168e-15 -9.659692440772985e-16 1.516258046669756 23.766782097823047 -1.93490792072976 -2.4843133521821706e-07 -2.4380591547497866e-07 -4.373463324281568 17.46908104400377 13.84284891360375 -178.49811688343277 117.66705918904202 -37.88711142910623 -174.52915142870992 -2.3772861522060702e-06 -7.379592444612969e-07 32.74290426286796 -3.531125038440127e-31 -6.3611093629270335e-15 -6.3611093629270335e-15 -113.94531267219995 27.4775117756672 137.00883382628916 -1.4047132696837403e-06 -6.990158943260941e-07 -112.04756072948278 0.0 0.0 0.0
0.00021467398619279265 95.23624420166016 -0.0007645892910659313 -11.332759951241604 -10.731273322995973 -29.214276857529292 0.5394861886982384 15.801672103884675 -1.0396517598050505 -3.5396891102667296 9.527097350688633 -0.019956157893740105 -1.5902773407317584e-15 -1.7890620083232284e-15 2.882377680076312e-15 -1.607804126613389 22.284698395972395 -0.6376460447155466 1.593503618103592 8.448149083302443 -0.46395749406619097 0.0 0.0 1.2921003393445536e-15 1.4673791026287912 23.82680727417324 -1.921431583826843 4.98962434780668e-07 -2.40627322153951e-07 -4.205963815173854 17.612036886666523 13.484812591290082 -178.4275303183795 117.90526491385806 -37.54453826075342 -174.45143649735525 -1.6911216230315566e-06 3.691414212977873e-07 33.161866149072516 -3.1805546814635168e-15 0.0 0.0 -114.34317212309703 26.640464086389212 136.47677269329188 -2.324553918619915e-07 2.604032643030428e-06 -112.90737968155645 3.531125038440127e-31 -6.361109362927035e-15 6.361109362927035e-15
0.00022786066983826458 95.23616790771484 -0.000744565506465733 -11.275444686024832 -10.820142103745251 -28.782234560126607 0.5135819574637335 15.638572691310799 -1.0304556335005934 -3.465364958674332 9.777197165566895 -0.03439555045451546 5.689801087330283e-33 -1.9878466759146977e-16 3.279947015259251e-15 -1.598778102346056 22.132872361390774 -0.6483677849760393 1.3911818993769371 8.238070046855595 -0.42888530050930507 -2.9817700138720465e-16 -2.5216163909759208e-33 9.69075254508415e-16 1.4291820482008046 24.17365829302449 -1.9445395863191117 2.6147653587955574e-07 -1.6315418790745292e-07 -4.1609765993474825 18.17210499205368 13.412564820011294 -178.5300209452935 118.11464921180193 -37.691816391125116 -174.3128928915981 1.9712050891503975e-06 2.2838524652304164e-06 34.10859090166093 -3.531125038440127e-31 6.361109362927033e-15 6.361109362927033e-15 -114.69973405394921 25.624682060035582 136.03049228741685 5.343396730603881e-06 7.806739046654882e-06 -113.34603198582684 0.0 0.0 0.0
0.00020647930796258152 95.23614501953125 -0.0007521092193201184 -11.36938291351136 -10.675114523242003 -28.881519231396034 0.5277624702287944 15.415279966301611 -0.9796963295765229 -3.4357561285400107 10.11081700889108 -0.018405722625053245 -7.951386703658792e-16 -1.9878466759146985e-16 3.776908684237926e-15 -1.5480137804961063 21.968139005089192 -0.6064870319054254 1.3213585619008954 8.450150812248166 -0.41619532246157215 0.0 0.0 -2.782985346280578e-15 1.567248108601983 24.020919131115946 -1.9279036070108306 -1.1531632647844553e-07 1.2706640566415244e-06 -4.085952045588503 18.649417931495027 13.35430587157155 -178.70800355316163 117.77936049073591 -37.46662664318624 -174.5946131267179 5.243802858034496e-06 -3.342721116414439e-06 34.13333282101071 -3.531125038440127e-31 6.361109362927035e-15 6.361109362927035e-15 -114.88362137087356 25.554585761315355 135.63339339767478 2.6730821509858923e-06 2.103546983988056e-06 -113.09381574640301 -6.3611093629270335e-15 -1.5902773407317588e-15 6.3611093629270335e-15
0.00018630194244906306 95.23616790771484 -0.0007451046258211136 -11.32438448155308 -10.548463184351316 -29.141094135557577 0.2804094791415232 14.882895487707724 -0.9162209410921972 -3.3354012879905706 10.03710242903014 -0.017385600549151968 7.951386703658792e-16 -1.5902773407317584e-15 1.2921003393445538e-15 -1.7731399878415435 21.78177273514238 -0.5659018119570015 1.4839619704232 8.517446593384298 -0.4306858218892808 -1.1530468112582201e-33 -4.969616689786746e-17 -2.6587449290359092e-15 1.4725996412529345 23.980957817897576 -1.9389493463358296 -2.679791347381798e-07 4.270524127763593e-07 -4.064239265832621 18.81242754428613 13.696724638343833 -178.96318821065157 118.27799667420138 -37.92808401109016 -174.10878534061385 4.667730965067174e-06 3.554832360518963e-07 34.6245835047837 6.3611093629270335e-15 0.0 0.0 -115.00971272619915 25.455604465987328 134.696888077168 -6.076521821627494e-07 4.507055518008662e-06 -111.61663031612426 0.0 6.3611093629270335e-15 0.0
0.000138864474138245 95.23616027832031 -0.0007630300242453814 -11.324592280970396 -10.53010672538734 -29.40114834028751 0.010029596502755443 14.675093677457246 -0.8617828017692812 -3.320399967594295 10.048876641483544 0.007301150783353629 0.0 0.0 -1.0933156717530838e-15 -2.2870225341680785 21.83650429444689 -0.4150027224986501 1.7139233847913262 8.565994171414639 -0.4106976366613526 -5.963540027744093e-16 -2.7414496148045907e-32 5.2677936911739486e-15 1.5568916534770245 23.94679256376288 -2.0136407229364957 1.5679020116083811e-07 -2.477112328331524e-07 -4.0133185999760315 18.81535921035393 13.686705608412309 -178.35963312911173 117.96028476326666 -37.440962040570405 -174.14504024483267 4.068625415664511e-06 -3.097243055562068e-07 34.22855957610135 0.0 0.0 0.0 -114.567472550714 26.40265076320841 134.16141130644496 -7.128733567674793e-07 -1.6398057539562548e-06 -110.11064448986644 8.827812596100317e-32 -1.5902773407317582e-15 6.361109362927033e-15
